<svg id="Livello_1" data-name="Livello 1" xmlns="http://www.w3.org/2000/svg" viewBox="0 0 250 250"><title>icona-illustrazione</title><circle cx="125.28" cy="125.34" r="124.26" style="fill:#f0f6f9"/><path d="M125.28,249.6a124.26,124.26,0,1,1,0-248.51Z" style="fill:#77828c;opacity:0.19"/><path d="M173.31,132.15c-4.44,5.69-13.66,5.76-19.58,9.1-6.13,3.47-11,11.26-17.88,12.1s-13.5-5.53-20.29-7.41c-6.55-1.81-15.51.35-21.2-4.09s-5.76-13.66-9.1-19.58c-3.47-6.13-11.25-11-12.1-17.89s5.53-13.49,7.41-20.28c1.81-6.55-.35-15.51,4.09-21.2s13.67-5.76,19.58-9.1c6.13-3.47,11-11.26,17.89-12.1s13.49,5.53,20.28,7.41c6.55,1.81,15.52-.36,21.2,4.09s5.76,13.66,9.1,19.58c3.47,6.13,11.26,11,12.11,17.89s-5.54,13.49-7.42,20.28C175.59,117.5,177.76,126.46,173.31,132.15Z" style="fill:#77828c;opacity:0.29"/><circle cx="125.01" cy="96.85" r="16.13" style="fill:#77828c;opacity:0.5"/><circle cx="125.28" cy="125.34" r="123.31" style="fill:none;stroke:#77828c;stroke-miterlimit:10;stroke-width:1.5px"/><path d="M176.53,110.1c-2.57,6.75-11.35,9.55-16,14.49-4.83,5.13-7.18,14-13.51,16.86s-14.52-1.29-21.56-1.08c-6.8.21-14.72,4.93-21.47,2.37s-9.54-11.35-14.49-16c-5.12-4.83-14-7.18-16.85-13.5s1.29-14.53,1.07-21.57c-.2-6.79-4.93-14.71-2.37-21.46s11.35-9.54,16-14.49c4.83-5.13,7.18-14,13.51-16.85s14.52,1.28,21.56,1.07c6.8-.21,14.72-4.93,21.47-2.37s9.54,11.35,14.49,16c5.12,4.83,14,7.18,16.85,13.5s-1.29,14.53-1.07,21.57C174.36,95.43,179.09,103.35,176.53,110.1Z" style="fill:none;stroke:#77828c;stroke-miterlimit:10;stroke-width:1.5px"/><circle cx="124.92" cy="89.39" r="16.13" style="fill:none;stroke:#77828c;stroke-miterlimit:10;stroke-width:1.5px"/><line x1="125.27" y1="140.73" x2="125.27" y2="191.32" style="fill:none;stroke:#77828c;stroke-miterlimit:10;stroke-width:1.5px"/><path d="M156.05,195.13c-9.35,9.34-30.47,7.14-30.47,7.14s-2.2-21.12,7.14-30.47,30.47-7.14,30.47-7.14S165.4,185.78,156.05,195.13Z" style="fill:none;stroke:#77828c;stroke-miterlimit:10;stroke-width:1.5px"/><path d="M94.53,195.13c9.35,9.34,30.47,7.14,30.47,7.14s2.2-21.12-7.14-30.47-30.47-7.14-30.47-7.14S85.18,185.78,94.53,195.13Z" style="fill:none;stroke:#77828c;stroke-miterlimit:10;stroke-width:1.5px"/><path d="M156.05,202.72c-9.35,9.35-30.47,7.14-30.47,7.14s-2.2-21.12,7.14-30.47,30.47-7.14,30.47-7.14S165.4,193.37,156.05,202.72Z" style="fill:#77828c;opacity:0.29"/><path d="M94.53,202.72c9.35,9.35,30.47,7.14,30.47,7.14s2.2-21.12-7.14-30.47-30.47-7.14-30.47-7.14S85.18,193.37,94.53,202.72Z" style="fill:#77828c;opacity:0.29"/></svg>