<svg xmlns="http://www.w3.org/2000/svg" viewBox="0 0 250 250"><title>icona-brand</title><g id="Livello_1" data-name="Livello 1"><circle cx="125.77" cy="125.26" r="124.34" style="fill:#f0f6f9"/><circle cx="125.77" cy="125.26" r="123.39" style="fill:none;stroke:#77828c;stroke-miterlimit:10;stroke-width:1.5px"/><path d="M125.77,249.6a124.35,124.35,0,0,1,0-248.69Z" style="fill:#77828c;opacity:0.19"/></g><g id="Modalità_Isolamento" data-name="Modalità Isolamento"><path d="M58.25,63.25V89.86a2.66,2.66,0,0,1-2.67,2.66H49.65A2.66,2.66,0,0,1,47,89.86V63.25a2.67,2.67,0,0,1,2.66-2.66h5.93A2.67,2.67,0,0,1,58.25,63.25Z" style="fill:none;stroke:#77828c;stroke-miterlimit:10;stroke-width:1.5px"/><path d="M111.21,64.35a5.84,5.84,0,0,1-3.86,5.32l-.47.18.27,2.16c.41,3.28-1.47,7.11-4.61,8.15l-8.07,2.68C87.25,85.25,81.12,88.53,79.82,96l0,0c-1,5.6-5.38,10.94-11,10.38v-.72L68.56,94.3c0-1.64-1.86-3.59-4.2-3.8l-6-.55V62.83l8.59,0L84.6,54.38a7,7,0,0,1,9.15,2.92l3.13-1.1a7.76,7.76,0,0,1,9.6,4,4.1,4.1,0,0,1,.49,0,4.22,4.22,0,0,1,4.14,3.16A5.24,5.24,0,0,1,111.21,64.35Z" style="fill:none;stroke:#77828c;stroke-miterlimit:10;stroke-width:1.5px"/><path d="M93.75,57.3s-7.63,3.5-9.89,5.26" style="fill:none;stroke:#77828c;stroke-miterlimit:10;stroke-width:1.5px"/><path d="M106.48,60.18S92.16,64.43,87,68.29" style="fill:none;stroke:#77828c;stroke-miterlimit:10;stroke-width:1.5px"/><path d="M106.88,69.85s-12.06,2.56-16.94,5.23" style="fill:none;stroke:#77828c;stroke-miterlimit:10;stroke-width:1.5px"/><path d="M191.89,127.41a5.85,5.85,0,0,0-5.35,3.82l-.19.47-2.15-.28c-3.28-.44-7.12,1.41-8.18,4.54L173.27,144c-2.45,7.19-5.78,13.3-13.28,14.55h-.05c-5.61.93-11,5.3-10.47,10.95h.73l11.43.3c1.63,0,3.57,1.88,3.77,4.22l.5,6,27.12.2,0-8.59,8.61-17.56a7,7,0,0,0-2.85-9.17l1.12-3.12a7.76,7.76,0,0,0-3.9-9.63,4.15,4.15,0,0,0,0-.49,4.23,4.23,0,0,0-3.13-4.16A5.25,5.25,0,0,0,191.89,127.41Z" style="fill:none;stroke:#77828c;stroke-miterlimit:10;stroke-width:1.5px"/><path d="M198.81,144.92s-3.55,7.61-5.33,9.85" style="fill:none;stroke:#77828c;stroke-miterlimit:10;stroke-width:1.5px"/><path d="M196,132.17s-4.36,14.29-8.26,19.47" style="fill:none;stroke:#77828c;stroke-miterlimit:10;stroke-width:1.5px"/><path d="M186.36,131.7s-2.65,12-5.36,16.9" style="fill:none;stroke:#77828c;stroke-miterlimit:10;stroke-width:1.5px"/><path d="M166.53,180.22h26.61a2.66,2.66,0,0,1,2.66,2.66v5.94a2.66,2.66,0,0,1-2.66,2.66H166.53a2.66,2.66,0,0,1-2.66-2.66v-5.94A2.66,2.66,0,0,1,166.53,180.22Z" style="fill:none;stroke:#77828c;stroke-miterlimit:10;stroke-width:1.5px"/><path d="M60.67,69.12V95.73A2.66,2.66,0,0,1,58,98.39H52.08a2.67,2.67,0,0,1-2.67-2.66V69.12a2.67,2.67,0,0,1,2.67-2.65H58A2.66,2.66,0,0,1,60.67,69.12Z" style="fill:#77828c;opacity:0.5"/><path d="M113.64,70.22a5.86,5.86,0,0,1-3.87,5.33l-.47.18.27,2.15C110,81.17,108.11,85,105,86l-8.08,2.69c-7.21,2.4-13.34,5.68-14.65,13.17v0c-1,5.6-5.38,10.94-11,10.38v-.72L71,100.17c0-1.64-1.85-3.58-4.19-3.8l-6-.55V68.7l8.59,0L87,60.26a7,7,0,0,1,9.15,2.92l3.13-1.11a7.78,7.78,0,0,1,9.6,4,4,4,0,0,1,.49,0,4.22,4.22,0,0,1,4.13,3.17A5.15,5.15,0,0,1,113.64,70.22Z" style="fill:#77828c;opacity:0.29"/><path d="M194.32,133.84a5.89,5.89,0,0,0-5.36,3.83l-.18.47-2.15-.28c-3.28-.44-7.12,1.41-8.19,4.54l-2.74,8c-2.46,7.2-5.78,13.3-13.29,14.55l0,0c-5.6.93-11,5.3-10.46,10.95h.72l11.43.31c1.64.05,3.57,1.88,3.77,4.22l.51,6,27.11.2,0-8.59,8.61-17.56a7,7,0,0,0-2.86-9.17l1.13-3.12a7.77,7.77,0,0,0-3.9-9.63,4.15,4.15,0,0,0,0-.49,4.23,4.23,0,0,0-3.14-4.16A6,6,0,0,0,194.32,133.84Z" style="fill:#77828c;opacity:0.29"/><path d="M169,186.66h26.61a2.66,2.66,0,0,1,2.65,2.66v5.94a2.66,2.66,0,0,1-2.65,2.66H169a2.67,2.67,0,0,1-2.66-2.66v-5.94A2.66,2.66,0,0,1,169,186.66Z" style="fill:#77828c;opacity:0.5"/><path d="M136.67,135a1.77,1.77,0,0,0,1.86,1.67,2.86,2.86,0,0,0,2.74-2.75v-.35l0-.36a4.63,4.63,0,0,0-4.41-4h-.57a7.48,7.48,0,0,0-7,7.18l0,.53,0,.39a12.11,12.11,0,0,0,11.62,11.4l.76,0,.39,0A19.58,19.58,0,0,0,160.79,129l0-1.12a31.66,31.66,0,0,0-30.41-30.17s-2.59-.06-2.92,0l-.5,0-.5,0a51.29,51.29,0,0,0-48.32,51.05" style="fill:none;stroke:#77828c;stroke-miterlimit:10;stroke-width:1.5px"/><path d="M136.67,135v0" style="fill:none;stroke:#77828c;stroke-miterlimit:10;stroke-width:1.5px"/><path d="M136.56,129.24h.09" style="fill:none;stroke:#77828c;stroke-miterlimit:10;stroke-width:1.5px"/><path d="M129.22,136.86v-.15" style="fill:none;stroke:#77828c;stroke-miterlimit:10;stroke-width:1.5px"/><path d="M136.41,129.23h.15" style="fill:none;stroke:#77828c;stroke-miterlimit:10;stroke-width:1.5px"/><path d="M129.21,137.11v-.24" style="fill:none;stroke:#77828c;stroke-miterlimit:10;stroke-width:1.5px"/><path d="M105,196.91h0s-7.18-1.94-8.47-3.34L49.08,142.09a3.76,3.76,0,0,1,.56-5.24h0a3.77,3.77,0,0,1,5.27-.13l47.43,51.48C103.64,189.6,105,196.91,105,196.91Z" style="fill:none;stroke:#77828c;stroke-miterlimit:10;stroke-width:1.5px"/><path d="M106.06,202.78h0s-7.18-1.94-8.47-3.34L50.15,148a3.75,3.75,0,0,1,.56-5.24h0a3.75,3.75,0,0,1,5.26-.13l47.44,51.48C104.71,195.47,106.06,202.78,106.06,202.78Z" style="fill:#77828c;opacity:0.29"/><path d="M113.64,72.05h67.24a4.72,4.72,0,0,1,4.72,4.72v54.68" style="fill:none;stroke:#77828c;stroke-miterlimit:10;stroke-width:1.5px"/><line x1="152.07" y1="175.54" x2="90.68" y2="175.54" style="fill:none;stroke:#77828c;stroke-miterlimit:10;stroke-width:1.5px"/><line x1="61.86" y1="144.27" x2="61.86" y2="95.87" style="fill:none;stroke:#77828c;stroke-miterlimit:10;stroke-width:1.5px"/><path d="M61.86,156v14.86a4.72,4.72,0,0,0,4.72,4.73h9" style="fill:none;stroke:#77828c;stroke-miterlimit:10;stroke-width:1.5px"/></g></svg>