<svg id="Livello_1" data-name="Livello 1" xmlns="http://www.w3.org/2000/svg" viewBox="0 0 250 250"><title>icona-ux</title><circle cx="124.47" cy="125.15" r="124.85" style="fill:#f0f6f9"/><path d="M124.47,250a124.85,124.85,0,0,1,0-249.7Z" style="fill:#77828c;opacity:0.19"/><path d="M165.92,44.94H96.33A15.35,15.35,0,0,0,81,60.3V184.46a15.35,15.35,0,0,0,15.35,15.35h69.59a15.35,15.35,0,0,0,15.35-15.35V60.3A15.36,15.36,0,0,0,165.92,44.94Zm10.57,133.61a13.49,13.49,0,0,1-.67,4.24l-28.28-40.32a26.89,26.89,0,1,0-6.94,4.12l30.17,43.2a13.92,13.92,0,0,1-8.17,2.65h-63a13.89,13.89,0,0,1-13.89-13.89V66.21A13.89,13.89,0,0,1,99.64,52.32h63a13.89,13.89,0,0,1,13.89,13.89Z" style="fill:#77828c;opacity:0.29"/><circle cx="131.39" cy="122.06" r="18.76" style="fill:#77828c;opacity:0.5"/><circle cx="124.13" cy="125.15" r="123.9" style="fill:none;stroke:#77828c;stroke-miterlimit:10;stroke-width:1.5px"/><path d="M160.8,40.85H91.21A15.35,15.35,0,0,0,75.86,56.2V180.37a15.35,15.35,0,0,0,15.35,15.35H160.8a15.35,15.35,0,0,0,15.35-15.35V56.2A15.35,15.35,0,0,0,160.8,40.85Z" style="fill:none;stroke:#77828c;stroke-miterlimit:10;stroke-width:1.5px"/><circle cx="123.66" cy="118.2" r="26.95" style="fill:none;stroke:#77828c;stroke-miterlimit:10;stroke-width:1.5px"/><circle cx="123.66" cy="118.2" r="18.76" style="fill:none;stroke:#77828c;stroke-miterlimit:10;stroke-width:1.5px"/><path d="M135.21,142.39l30.44,43.3a13.8,13.8,0,0,1-8.16,2.66h-63a13.89,13.89,0,0,1-13.89-13.89V62.11A13.88,13.88,0,0,1,94.52,48.23h63a13.88,13.88,0,0,1,13.88,13.88V174.46a13.83,13.83,0,0,1-.66,4.24l-29-41" style="fill:none;stroke:#77828c;stroke-linejoin:round;stroke-width:1.5px"/></svg>