<svg id="Livello_1" data-name="Livello 1" xmlns="http://www.w3.org/2000/svg" viewBox="0 0 152.17 149.11"><defs><style>.cls-1{fill:none;stroke:#77828c;stroke-linecap:round;stroke-linejoin:bevel;stroke-width:1.5px;}</style></defs><title>logo-federica</title><path class="cls-1" d="M75.63,127.53c3.43,0,8-1.25,10.55-3.76a12.2,12.2,0,0,0,3.76-8.91V69.69A12.84,12.84,0,0,0,77.27,57H89.94a12.84,12.84,0,0,1,12.67,12.67v45.17a12.84,12.84,0,0,1-12.67,12.67Z"/><path class="cls-1" d="M57.28,22.46a11.72,11.72,0,0,0-4.15,2.87,12.32,12.32,0,0,0-3.57,8.91V57.08a12.27,12.27,0,0,0,8.91-3.56,11.42,11.42,0,0,0,2.87-4.16,13.27,13.27,0,0,0,.89-4.94V34.24a12.35,12.35,0,0,1,3.56-8.91A11.76,11.76,0,0,1,70,22.46a19.51,19.51,0,0,1,6-.89H62.23A13.56,13.56,0,0,0,57.28,22.46Z"/><path class="cls-1" d="M86.59,24a8.74,8.74,0,0,0-2.13-1.78,4.35,4.35,0,0,0-2.22-.6H75.9v6.34a6.11,6.11,0,0,0,6.34,6.33,5.92,5.92,0,0,0,4.35-1.78,6,6,0,0,0,2-4.55A5.7,5.7,0,0,0,86.59,24Z"/><path class="cls-1" d="M62.23,57a13.56,13.56,0,0,0-4.95.89,11.47,11.47,0,0,0-4.15,2.87,12.28,12.28,0,0,0-3.57,8.91v7.69h0v2.44s0,0,0,.07c0,.27,0,.53,0,.79a13.3,13.3,0,0,0,.85,4.09,11.64,11.64,0,0,0,2.87,4.15,12.32,12.32,0,0,0,8.91,3.57V69.69a12.32,12.32,0,0,1,3.56-8.91A11.51,11.51,0,0,1,70,57.91a13.56,13.56,0,0,1,5-.89Z"/><path class="cls-1" d="M65.26,125.16a9.39,9.39,0,0,0,2.13,1.78,4.48,4.48,0,0,0,2.23.59H76V121.2a6.11,6.11,0,0,0-6.33-6.34,5.93,5.93,0,0,0-4.36,1.79,6,6,0,0,0-2,4.55A5.7,5.7,0,0,0,65.26,125.16Z"/></svg>