<svg id="Livello_1" data-name="Livello 1" xmlns="http://www.w3.org/2000/svg" viewBox="0 0 152.17 149.11"><defs><style>.cls-1{fill:#77828c;}</style></defs><title>logo federica</title><path class="cls-1" d="M79.69,127.33c3.4,0,8-1.24,10.45-3.72a12.09,12.09,0,0,0,3.72-8.82V70.05A12.7,12.7,0,0,0,81.32,57.51H93.86A12.7,12.7,0,0,1,106.4,70.05v44.74a12.7,12.7,0,0,1-12.54,12.54Z"/><path class="cls-1" d="M61.52,23.29a11.37,11.37,0,0,0-4.11,2.84A12.15,12.15,0,0,0,53.88,35V57.57A12.2,12.2,0,0,0,62.7,54a11.49,11.49,0,0,0,2.84-4.11,13.33,13.33,0,0,0,.88-4.9V35A12.2,12.2,0,0,1,70,26.13a11.32,11.32,0,0,1,4.12-2.84A19.12,19.12,0,0,1,80,22.41H66.42A13.29,13.29,0,0,0,61.52,23.29Z"/><path class="cls-1" d="M90.55,24.76A9.26,9.26,0,0,0,88.44,23a4.4,4.4,0,0,0-2.21-.58H80v6.27A6,6,0,0,0,86.23,35a5.91,5.91,0,0,0,4.32-1.76,6,6,0,0,0,2-4.51A5.67,5.67,0,0,0,90.55,24.76Z"/><path class="cls-1" d="M66.42,57.51a13.29,13.29,0,0,0-4.9.88,11.37,11.37,0,0,0-4.11,2.84,12.15,12.15,0,0,0-3.53,8.82v7.62h0v2.48c0,.27,0,.53,0,.79a13.27,13.27,0,0,0,.85,4A11.44,11.44,0,0,0,57.6,89.1a12.2,12.2,0,0,0,8.82,3.53V70.05A12.2,12.2,0,0,1,70,61.23a11.32,11.32,0,0,1,4.12-2.84,13.26,13.26,0,0,1,4.9-.88Z"/><path class="cls-1" d="M69.42,125a9,9,0,0,0,2.11,1.76,4.31,4.31,0,0,0,2.21.59H80v-6.27a6,6,0,0,0-6.27-6.27,5.91,5.91,0,0,0-4.32,1.76,6,6,0,0,0-2,4.51A5.67,5.67,0,0,0,69.42,125Z"/></svg>